<svg xmlns="http://www.w3.org/2000/svg" width="1077" height="250" fill="none" viewBox="0 0 1077 250">
  <circle cx="94" cy="120" r="94" fill="#7A9CEB"/>
  <path fill="#2B2B2B" d="M228.777 45.363h30.957l55.469 55.664 55.469-55.664h30.957V198h-30.957V88.234l-55.469 53.418-55.469-53.418V198h-30.957V45.363Zm187.227 116.309c0-5.534 1.204-10.58 3.613-15.137s6.022-8.463 10.84-11.719c4.818-3.32 10.807-5.859 17.969-7.617 7.226-1.823 15.625-2.734 25.195-2.734 7.096 0 14.551.521 22.363 1.562 7.878 1.042 15.983 2.637 24.317 4.785-.326-3.645-1.433-6.998-3.321-10.058-1.888-3.125-4.524-5.794-7.91-8.008-3.32-2.279-7.356-4.036-12.109-5.273-4.688-1.237-10.026-1.856-16.016-1.856-3.255 0-6.836.195-10.742.586-3.906.391-7.943.977-12.109 1.758a136.974 136.974 0 0 0-12.403 2.93c-4.036 1.171-7.812 2.571-11.328 4.199l-8.789-23.73c4.362-1.563 9.017-2.995 13.965-4.297a193.947 193.947 0 0 1 15.332-3.32 184.19 184.19 0 0 1 15.625-2.247c5.208-.52 10.254-.781 15.137-.781 21.549 0 37.565 5.501 48.047 16.504 10.481 11.002 15.722 27.864 15.722 50.586V198h-28.906v-10.84c-2.995 1.758-6.282 3.418-9.863 4.981-3.516 1.562-7.357 2.929-11.524 4.101-4.166 1.172-8.658 2.084-13.476 2.735-4.753.716-9.798 1.074-15.137 1.074-8.984 0-16.894-.977-23.73-2.93-6.771-1.953-12.435-4.655-16.993-8.105-4.557-3.451-8.007-7.487-10.351-12.11-2.279-4.687-3.418-9.765-3.418-15.234Zm30.469-.977c0 1.888.488 3.711 1.465 5.469.976 1.693 2.539 3.223 4.687 4.59 2.148 1.302 4.883 2.376 8.203 3.223 3.386.781 7.455 1.171 12.207 1.171 5.078 0 9.994-.455 14.746-1.367 4.753-.911 9.18-2.116 13.281-3.613 4.102-1.497 7.813-3.223 11.133-5.176 3.321-1.953 6.088-3.971 8.301-6.054v-5.079a167.945 167.945 0 0 0-13.184-3.125 156.89 156.89 0 0 0-12.402-1.953 145.21 145.21 0 0 0-11.133-1.074c-3.45-.195-6.478-.293-9.082-.293-5.403 0-9.896.358-13.476 1.074-3.581.716-6.478 1.693-8.692 2.93-2.213 1.172-3.776 2.572-4.687 4.199-.912 1.628-1.367 3.321-1.367 5.078Zm138.593-56.25h-27.832v-21.68h27.832v-35.84h28.907v35.84h27.832v21.68h-27.832V198h-28.907v-93.555Zm62.422-68.36h28.907v55.47c6.054-3.32 12.793-5.957 20.214-7.91 7.487-1.954 15.332-2.93 23.536-2.93 9.505 0 18.033 1.4 25.585 4.2 7.618 2.798 14.063 6.835 19.336 12.108 5.274 5.209 9.31 11.556 12.11 19.043 2.864 7.487 4.297 15.918 4.297 25.293V198h-28.809v-55.469c0-5.469-.879-10.449-2.637-14.941-1.757-4.557-4.329-8.464-7.715-11.719-3.385-3.255-7.519-5.762-12.402-7.519-4.818-1.823-10.286-2.735-16.406-2.735-7.357 0-14.193 1.172-20.508 3.516-6.315 2.344-11.849 5.306-16.601 8.887V198h-28.907V36.086Zm160.176 176.368c2.995 1.953 6.25 3.679 9.766 5.176a77.26 77.26 0 0 0 10.937 3.711 88.393 88.393 0 0 0 11.719 2.148c3.971.521 7.91.782 11.816.782 13.282 0 23.503-2.865 30.664-8.594 7.227-5.664 10.84-14.193 10.84-25.586v-3.906c-2.539 1.757-5.403 3.385-8.594 4.882-3.124 1.433-6.51 2.67-10.156 3.711-3.58 1.042-7.389 1.856-11.426 2.442a92.987 92.987 0 0 1-12.109.781c-8.789 0-16.667-1.27-23.633-3.809-6.901-2.604-12.76-6.38-17.578-11.328-4.752-5.013-8.398-11.165-10.937-18.457-2.539-7.291-3.809-15.625-3.809-25v-56.64h28.809v48.632c0 13.933 2.636 24.219 7.91 30.86 5.338 6.575 13.737 9.863 25.195 9.863 8.073 0 15.202-1.4 21.387-4.199 6.25-2.865 11.23-6.511 14.941-10.938V82.766h28.906v102.05c0 11.003-1.562 20.541-4.687 28.614-3.125 8.138-7.682 14.876-13.672 20.215-5.924 5.338-13.216 9.309-21.875 11.914-8.659 2.669-18.489 4.003-29.492 4.003-10.742 0-20.768-1.139-30.078-3.417-9.31-2.279-17.839-5.372-25.586-9.278l10.742-24.414Z"/>
  <path fill="#fff" d="M132 81v77H55V81z"/>
</svg>
